<svg xmlns="http://www.w3.org/2000/svg" width="189" height="189" viewBox="0 0 189 189" version="1.1"><path d="M 83 2.067 C 44.483 6.652, 12.496 35.987, 4.485 74.073 C 3.635 78.114, 3 86.390, 3 93.437 C 3 124.678, 17.383 151.744, 43.148 168.988 C 58.627 179.348, 74.746 184.163, 94 184.181 C 118.673 184.203, 138.732 176.432, 156.211 160.079 C 165.684 151.216, 171.510 143.308, 176.950 131.928 C 183.428 118.379, 185.293 109.853, 185.355 93.500 C 185.413 78.350, 184.174 71.285, 179.327 59.147 C 173.263 43.959, 160.627 27.800, 147.579 18.545 C 129.108 5.444, 105.414 -0.602, 83 2.067 M 55.520 48.287 C 50.167 51.319, 47.038 57.009, 47.016 63.750 L 47 69 87.540 69 C 125.952 69, 128.283 68.896, 131.956 67.023 C 137.978 63.950, 141.978 56.669, 141.994 48.750 L 142 46 100.750 46.016 C 59.809 46.033, 59.470 46.050, 55.520 48.287 M 47 93.044 L 47 105.088 75.583 104.794 L 104.167 104.500 107.083 101.234 C 109.495 98.534, 110 97.088, 110 92.884 C 110 88.435, 109.575 87.375, 106.600 84.400 L 103.200 81 75.100 81 L 47 81 47 93.044 M 47.016 122.250 C 47.038 128.991, 50.167 134.681, 55.520 137.713 C 59.471 139.951, 59.804 139.967, 100.888 139.984 L 142.275 140 141.602 134.250 C 140.769 127.136, 137.385 121.747, 132.039 119.020 C 128.259 117.092, 126.238 117, 87.540 117 L 47 117 47.016 122.250" stroke="none" fill="#24343c" fill-rule="evenodd"/></svg>